<?xml version="1.0" encoding="UTF-8" standalone="no"?>
<!DOCTYPE svg PUBLIC "-//W3C//DTD SVG 1.1//EN"
 "http://www.w3.org/Graphics/SVG/1.1/DTD/svg11.dtd">
<!-- Generated by graphviz version 2.47.0 (20210316.0004)
 -->
<!-- Title: dependencies Pages: 1 -->
<svg width="1035pt" height="222pt"
 viewBox="0.00 0.00 1035.00 222.00" xmlns="http://www.w3.org/2000/svg" xmlns:xlink="http://www.w3.org/1999/xlink">
<g id="graph0" class="graph" transform="scale(1 1) rotate(0) translate(4 218)">
<title>dependencies</title>
<polygon fill="white" stroke="transparent" points="-4,4 -4,-218 1031,-218 1031,4 -4,4"/>
<text text-anchor="start" x="492.51" y="-42.4" font-family="Times-12" font-weight="bold" font-size="14.00">Legend</text>
<polygon fill="#ffffb3" stroke="transparent" points="279.5,-10 279.5,-30 299.5,-30 299.5,-10 279.5,-10"/>
<text text-anchor="start" x="303.13" y="-15.4" font-family="Times-12" font-size="14.00"> &#160;Declarations</text>
<polygon fill="#8dd3c7" stroke="transparent" points="392.5,-10 392.5,-30 412.5,-30 412.5,-10 392.5,-10"/>
<text text-anchor="start" x="416.23" y="-15.4" font-family="Times-12" font-size="14.00"> &#160;Module</text>
<polygon fill="#80b1d3" stroke="transparent" points="478.5,-10 478.5,-30 498.5,-30 498.5,-10 478.5,-10"/>
<text text-anchor="start" x="502.28" y="-15.4" font-family="Times-12" font-size="14.00"> &#160;Bootstrap</text>
<polygon fill="#fdb462" stroke="transparent" points="575.5,-10 575.5,-30 595.5,-30 595.5,-10 575.5,-10"/>
<text text-anchor="start" x="599.17" y="-15.4" font-family="Times-12" font-size="14.00"> &#160;Providers</text>
<polygon fill="#fb8072" stroke="transparent" points="671.5,-10 671.5,-30 691.5,-30 691.5,-10 671.5,-10"/>
<text text-anchor="start" x="695.23" y="-15.4" font-family="Times-12" font-size="14.00"> &#160;Exports</text>
<g id="clust1" class="cluster">
<title>cluster_AppModule</title>
<polygon fill="none" stroke="black" stroke-dasharray="1,5" points="8,-70 8,-198 721,-198 721,-70 8,-70"/>
</g>
<g id="clust3" class="cluster">
<title>cluster_AppModule_imports</title>
<polygon fill="none" stroke="black" points="470,-78 470,-130 713,-130 713,-78 470,-78"/>
</g>
<g id="clust6" class="cluster">
<title>cluster_AppModule_providers</title>
<polygon fill="none" stroke="black" points="16,-78 16,-130 462,-130 462,-78 16,-78"/>
</g>
<g id="clust13" class="cluster">
<title>cluster_PrismaModule</title>
<polygon fill="none" stroke="black" stroke-dasharray="1,5" points="729,-138 729,-206 1019,-206 1019,-138 729,-138"/>
</g>
<g id="clust16" class="cluster">
<title>cluster_PrismaModule_exports</title>
<polygon fill="none" stroke="black" points="895,-146 895,-198 1011,-198 1011,-146 895,-146"/>
</g>
<g id="clust18" class="cluster">
<title>cluster_PrismaModule_providers</title>
<polygon fill="none" stroke="black" points="737,-146 737,-198 887,-198 887,-146 737,-146"/>
</g>
<!-- DatabaseModule -->
<g id="node1" class="node">
<title>DatabaseModule</title>
<polygon fill="#8dd3c7" stroke="black" points="588.35,-122 585.35,-126 564.35,-126 561.35,-122 477.65,-122 477.65,-86 588.35,-86 588.35,-122"/>
<text text-anchor="middle" x="533" y="-99.8" font-family="Times,serif" font-size="14.00">DatabaseModule</text>
</g>
<!-- AppModule -->
<g id="node3" class="node">
<title>AppModule</title>
<polygon fill="#8dd3c7" stroke="black" points="424.66,-190 421.66,-194 400.66,-194 397.66,-190 341.34,-190 341.34,-154 424.66,-154 424.66,-190"/>
<text text-anchor="middle" x="383" y="-167.8" font-family="Times,serif" font-size="14.00">AppModule</text>
</g>
<!-- DatabaseModule&#45;&gt;AppModule -->
<g id="edge1" class="edge">
<title>DatabaseModule&#45;&gt;AppModule</title>
<path fill="none" stroke="black" d="M533,-122.22C533,-142.37 533,-172 533,-172 533,-172 434.78,-172 434.78,-172"/>
<polygon fill="black" stroke="black" points="434.78,-168.5 424.78,-172 434.78,-175.5 434.78,-168.5"/>
</g>
<!-- PrismaModule -->
<g id="node2" class="node">
<title>PrismaModule</title>
<polygon fill="#8dd3c7" stroke="black" points="705.43,-122 702.43,-126 681.43,-126 678.43,-122 606.57,-122 606.57,-86 705.43,-86 705.43,-122"/>
<text text-anchor="middle" x="656" y="-99.8" font-family="Times,serif" font-size="14.00">PrismaModule</text>
</g>
<!-- PrismaModule&#45;&gt;AppModule -->
<g id="edge2" class="edge">
<title>PrismaModule&#45;&gt;AppModule</title>
<path fill="none" stroke="black" d="M639.59,-122.25C639.59,-145.02 639.59,-181 639.59,-181 639.59,-181 434.8,-181 434.8,-181"/>
<polygon fill="black" stroke="black" points="434.8,-177.5 424.8,-181 434.8,-184.5 434.8,-177.5"/>
</g>
<!-- PrismaService  -->
<g id="node7" class="node">
<title>PrismaService </title>
<polygon fill="#fb8072" stroke="black" points="1003.36,-190 902.64,-190 902.64,-154 1003.36,-154 1003.36,-190"/>
<text text-anchor="middle" x="953" y="-167.8" font-family="Times,serif" font-size="14.00">PrismaService </text>
</g>
<!-- PrismaModule&#45;&gt;PrismaService  -->
<g id="edge6" class="edge">
<title>PrismaModule&#45;&gt;PrismaService </title>
<path fill="none" stroke="black" stroke-dasharray="5,2" d="M705.38,-104C789.83,-104 953,-104 953,-104 953,-104 953,-143.78 953,-143.78"/>
<polygon fill="black" stroke="black" points="949.5,-143.78 953,-153.78 956.5,-143.78 949.5,-143.78"/>
</g>
<!-- AppGetService -->
<g id="node4" class="node">
<title>AppGetService</title>
<ellipse fill="#fdb462" stroke="black" cx="383" cy="-104" rx="70.62" ry="18"/>
<text text-anchor="middle" x="383" y="-99.8" font-family="Times,serif" font-size="14.00">AppGetService</text>
</g>
<!-- AppGetService&#45;&gt;AppModule -->
<g id="edge3" class="edge">
<title>AppGetService&#45;&gt;AppModule</title>
<path fill="none" stroke="black" d="M383,-122.22C383,-122.22 383,-143.73 383,-143.73"/>
<polygon fill="black" stroke="black" points="379.5,-143.73 383,-153.73 386.5,-143.73 379.5,-143.73"/>
</g>
<!-- AppPutService -->
<g id="node5" class="node">
<title>AppPutService</title>
<ellipse fill="#fdb462" stroke="black" cx="225" cy="-104" rx="69.5" ry="18"/>
<text text-anchor="middle" x="225" y="-99.8" font-family="Times,serif" font-size="14.00">AppPutService</text>
</g>
<!-- AppPutService&#45;&gt;AppModule -->
<g id="edge4" class="edge">
<title>AppPutService&#45;&gt;AppModule</title>
<path fill="none" stroke="black" d="M225,-122.27C225,-140.56 225,-166 225,-166 225,-166 331.07,-166 331.07,-166"/>
<polygon fill="black" stroke="black" points="331.07,-169.5 341.07,-166 331.07,-162.5 331.07,-169.5"/>
</g>
<!-- AppService -->
<g id="node6" class="node">
<title>AppService</title>
<ellipse fill="#fdb462" stroke="black" cx="81" cy="-104" rx="56.74" ry="18"/>
<text text-anchor="middle" x="81" y="-99.8" font-family="Times,serif" font-size="14.00">AppService</text>
</g>
<!-- AppService&#45;&gt;AppModule -->
<g id="edge5" class="edge">
<title>AppService&#45;&gt;AppModule</title>
<path fill="none" stroke="black" d="M81,-122.29C81,-144.21 81,-178 81,-178 81,-178 331.33,-178 331.33,-178"/>
<polygon fill="black" stroke="black" points="331.33,-181.5 341.33,-178 331.33,-174.5 331.33,-181.5"/>
</g>
<!-- PrismaService -->
<g id="node8" class="node">
<title>PrismaService</title>
<ellipse fill="#fdb462" stroke="black" cx="812" cy="-172" rx="66.63" ry="18"/>
<text text-anchor="middle" x="812" y="-167.8" font-family="Times,serif" font-size="14.00">PrismaService</text>
</g>
<!-- PrismaService&#45;&gt;PrismaModule -->
<g id="edge7" class="edge">
<title>PrismaService&#45;&gt;PrismaModule</title>
<path fill="none" stroke="black" d="M754.01,-163C715.66,-163 672.41,-163 672.41,-163 672.41,-163 672.41,-132.02 672.41,-132.02"/>
<polygon fill="black" stroke="black" points="675.91,-132.02 672.41,-122.02 668.91,-132.02 675.91,-132.02"/>
</g>
</g>
</svg>
