<?xml version="1.0" encoding="UTF-8" standalone="no"?>
<!DOCTYPE svg PUBLIC "-//W3C//DTD SVG 1.1//EN"
 "http://www.w3.org/Graphics/SVG/1.1/DTD/svg11.dtd">
<!-- Generated by graphviz version 2.47.0 (20210316.0004)
 -->
<!-- Title: dependencies Pages: 1 -->
<svg width="504pt" height="284pt"
 viewBox="0.00 0.00 504.00 284.00" xmlns="http://www.w3.org/2000/svg" xmlns:xlink="http://www.w3.org/1999/xlink">
<g id="graph0" class="graph" transform="scale(1 1) rotate(0) translate(4 280)">
<title>dependencies</title>
<polygon fill="white" stroke="transparent" points="-4,4 -4,-280 500,-280 500,4 -4,4"/>
<text text-anchor="start" x="227.01" y="-42.4" font-family="Times-12" font-weight="bold" font-size="14.00">Legend</text>
<polygon fill="#ffffb3" stroke="transparent" points="14,-10 14,-30 34,-30 34,-10 14,-10"/>
<text text-anchor="start" x="37.63" y="-15.4" font-family="Times-12" font-size="14.00"> &#160;Declarations</text>
<polygon fill="#8dd3c7" stroke="transparent" points="127,-10 127,-30 147,-30 147,-10 127,-10"/>
<text text-anchor="start" x="150.73" y="-15.4" font-family="Times-12" font-size="14.00"> &#160;Module</text>
<polygon fill="#80b1d3" stroke="transparent" points="213,-10 213,-30 233,-30 233,-10 213,-10"/>
<text text-anchor="start" x="236.78" y="-15.4" font-family="Times-12" font-size="14.00"> &#160;Bootstrap</text>
<polygon fill="#fdb462" stroke="transparent" points="310,-10 310,-30 330,-30 330,-10 310,-10"/>
<text text-anchor="start" x="333.67" y="-15.4" font-family="Times-12" font-size="14.00"> &#160;Providers</text>
<polygon fill="#fb8072" stroke="transparent" points="406,-10 406,-30 426,-30 426,-10 406,-10"/>
<text text-anchor="start" x="429.73" y="-15.4" font-family="Times-12" font-size="14.00"> &#160;Exports</text>
<g id="clust1" class="cluster">
<title>cluster_CoaModule</title>
<polygon fill="none" stroke="black" stroke-dasharray="1,5" points="73,-70 73,-268 423,-268 423,-70 73,-70"/>
</g>
<g id="clust4" class="cluster">
<title>cluster_CoaModule_exports</title>
<polygon fill="none" stroke="black" points="217,-208 217,-260 317,-260 317,-208 217,-208"/>
</g>
<g id="clust6" class="cluster">
<title>cluster_CoaModule_providers</title>
<polygon fill="none" stroke="black" points="81,-78 81,-130 415,-130 415,-78 81,-78"/>
</g>
<!-- CoaService  -->
<g id="node1" class="node">
<title>CoaService </title>
<polygon fill="#fb8072" stroke="black" points="309.03,-252 224.97,-252 224.97,-216 309.03,-216 309.03,-252"/>
<text text-anchor="middle" x="267" y="-229.8" font-family="Times,serif" font-size="14.00">CoaService </text>
</g>
<!-- CoaModule -->
<g id="node2" class="node">
<title>CoaModule</title>
<polygon fill="#8dd3c7" stroke="black" points="308.1,-187 305.1,-191 284.1,-191 281.1,-187 225.9,-187 225.9,-151 308.1,-151 308.1,-187"/>
<text text-anchor="middle" x="267" y="-164.8" font-family="Times,serif" font-size="14.00">CoaModule</text>
</g>
<!-- CoaModule&#45;&gt;CoaService  -->
<g id="edge1" class="edge">
<title>CoaModule&#45;&gt;CoaService </title>
<path fill="none" stroke="black" stroke-dasharray="5,2" d="M267,-187.11C267,-187.11 267,-205.99 267,-205.99"/>
<polygon fill="black" stroke="black" points="263.5,-205.99 267,-215.99 270.5,-205.99 263.5,-205.99"/>
</g>
<!-- CoaService -->
<g id="node3" class="node">
<title>CoaService</title>
<ellipse fill="#fdb462" stroke="black" cx="351" cy="-104" rx="55.59" ry="18"/>
<text text-anchor="middle" x="351" y="-99.8" font-family="Times,serif" font-size="14.00">CoaService</text>
</g>
<!-- CoaService&#45;&gt;CoaModule -->
<g id="edge2" class="edge">
<title>CoaService&#45;&gt;CoaModule</title>
<path fill="none" stroke="black" d="M301.75,-112.5C301.75,-112.5 301.75,-140.91 301.75,-140.91"/>
<polygon fill="black" stroke="black" points="298.25,-140.91 301.75,-150.91 305.25,-140.91 298.25,-140.91"/>
</g>
<!-- RadusergroupService -->
<g id="node4" class="node">
<title>RadusergroupService</title>
<ellipse fill="#fdb462" stroke="black" cx="183" cy="-104" rx="94.32" ry="18"/>
<text text-anchor="middle" x="183" y="-99.8" font-family="Times,serif" font-size="14.00">RadusergroupService</text>
</g>
<!-- RadusergroupService&#45;&gt;CoaModule -->
<g id="edge3" class="edge">
<title>RadusergroupService&#45;&gt;CoaModule</title>
<path fill="none" stroke="black" d="M251.56,-116.53C251.56,-116.53 251.56,-140.85 251.56,-140.85"/>
<polygon fill="black" stroke="black" points="248.06,-140.85 251.56,-150.85 255.06,-140.85 248.06,-140.85"/>
</g>
</g>
</svg>
