<?xml version="1.0" encoding="UTF-8" standalone="no"?>
<!DOCTYPE svg PUBLIC "-//W3C//DTD SVG 1.1//EN"
 "http://www.w3.org/Graphics/SVG/1.1/DTD/svg11.dtd">
<!-- Generated by graphviz version 2.47.0 (20210316.0004)
 -->
<!-- Title: dependencies Pages: 1 -->
<svg width="504pt" height="211pt"
 viewBox="0.00 0.00 504.00 211.00" xmlns="http://www.w3.org/2000/svg" xmlns:xlink="http://www.w3.org/1999/xlink">
<g id="graph0" class="graph" transform="scale(1 1) rotate(0) translate(4 207)">
<title>dependencies</title>
<polygon fill="white" stroke="transparent" points="-4,4 -4,-207 500,-207 500,4 -4,4"/>
<text text-anchor="start" x="227.01" y="-42.4" font-family="Times-12" font-weight="bold" font-size="14.00">Legend</text>
<polygon fill="#ffffb3" stroke="transparent" points="14,-10 14,-30 34,-30 34,-10 14,-10"/>
<text text-anchor="start" x="37.63" y="-15.4" font-family="Times-12" font-size="14.00"> &#160;Declarations</text>
<polygon fill="#8dd3c7" stroke="transparent" points="127,-10 127,-30 147,-30 147,-10 127,-10"/>
<text text-anchor="start" x="150.73" y="-15.4" font-family="Times-12" font-size="14.00"> &#160;Module</text>
<polygon fill="#80b1d3" stroke="transparent" points="213,-10 213,-30 233,-30 233,-10 213,-10"/>
<text text-anchor="start" x="236.78" y="-15.4" font-family="Times-12" font-size="14.00"> &#160;Bootstrap</text>
<polygon fill="#fdb462" stroke="transparent" points="310,-10 310,-30 330,-30 330,-10 310,-10"/>
<text text-anchor="start" x="333.67" y="-15.4" font-family="Times-12" font-size="14.00"> &#160;Providers</text>
<polygon fill="#fb8072" stroke="transparent" points="406,-10 406,-30 426,-30 426,-10 406,-10"/>
<text text-anchor="start" x="429.73" y="-15.4" font-family="Times-12" font-size="14.00"> &#160;Exports</text>
<g id="clust1" class="cluster">
<title>cluster_ZoneModule</title>
<polygon fill="none" stroke="black" stroke-dasharray="1,5" points="108,-70 108,-195 388,-195 388,-70 108,-70"/>
</g>
<g id="clust6" class="cluster">
<title>cluster_ZoneModule_providers</title>
<polygon fill="none" stroke="black" points="116,-78 116,-130 380,-130 380,-78 116,-78"/>
</g>
<!-- NasService -->
<g id="node1" class="node">
<title>NasService</title>
<ellipse fill="#fdb462" stroke="black" cx="317" cy="-104" rx="55.01" ry="18"/>
<text text-anchor="middle" x="317" y="-99.8" font-family="Times,serif" font-size="14.00">NasService</text>
</g>
<!-- ZoneModule -->
<g id="node3" class="node">
<title>ZoneModule</title>
<polygon fill="#8dd3c7" stroke="black" points="294.32,-187 291.32,-191 270.32,-191 267.32,-187 205.68,-187 205.68,-151 294.32,-151 294.32,-187"/>
<text text-anchor="middle" x="250" y="-164.8" font-family="Times,serif" font-size="14.00">ZoneModule</text>
</g>
<!-- NasService&#45;&gt;ZoneModule -->
<g id="edge1" class="edge">
<title>NasService&#45;&gt;ZoneModule</title>
<path fill="none" stroke="black" d="M278.08,-116.84C278.08,-116.84 278.08,-140.52 278.08,-140.52"/>
<polygon fill="black" stroke="black" points="274.58,-140.52 278.08,-150.52 281.58,-140.52 274.58,-140.52"/>
</g>
<!-- ZoneService -->
<g id="node2" class="node">
<title>ZoneService</title>
<ellipse fill="#fdb462" stroke="black" cx="184" cy="-104" rx="59.67" ry="18"/>
<text text-anchor="middle" x="184" y="-99.8" font-family="Times,serif" font-size="14.00">ZoneService</text>
</g>
<!-- ZoneService&#45;&gt;ZoneModule -->
<g id="edge2" class="edge">
<title>ZoneService&#45;&gt;ZoneModule</title>
<path fill="none" stroke="black" d="M224.84,-117.47C224.84,-117.47 224.84,-140.86 224.84,-140.86"/>
<polygon fill="black" stroke="black" points="221.34,-140.86 224.84,-150.86 228.34,-140.86 221.34,-140.86"/>
</g>
</g>
</svg>
