<?xml version="1.0" encoding="UTF-8" standalone="no"?>
<!DOCTYPE svg PUBLIC "-//W3C//DTD SVG 1.1//EN"
 "http://www.w3.org/Graphics/SVG/1.1/DTD/svg11.dtd">
<!-- Generated by graphviz version 2.47.0 (20210316.0004)
 -->
<!-- Title: dependencies Pages: 1 -->
<svg width="504pt" height="211pt"
 viewBox="0.00 0.00 504.00 211.00" xmlns="http://www.w3.org/2000/svg" xmlns:xlink="http://www.w3.org/1999/xlink">
<g id="graph0" class="graph" transform="scale(1 1) rotate(0) translate(4 207)">
<title>dependencies</title>
<polygon fill="white" stroke="transparent" points="-4,4 -4,-207 500,-207 500,4 -4,4"/>
<text text-anchor="start" x="227.01" y="-42.4" font-family="Times-12" font-weight="bold" font-size="14.00">Legend</text>
<polygon fill="#ffffb3" stroke="transparent" points="14,-10 14,-30 34,-30 34,-10 14,-10"/>
<text text-anchor="start" x="37.63" y="-15.4" font-family="Times-12" font-size="14.00"> &#160;Declarations</text>
<polygon fill="#8dd3c7" stroke="transparent" points="127,-10 127,-30 147,-30 147,-10 127,-10"/>
<text text-anchor="start" x="150.73" y="-15.4" font-family="Times-12" font-size="14.00"> &#160;Module</text>
<polygon fill="#80b1d3" stroke="transparent" points="213,-10 213,-30 233,-30 233,-10 213,-10"/>
<text text-anchor="start" x="236.78" y="-15.4" font-family="Times-12" font-size="14.00"> &#160;Bootstrap</text>
<polygon fill="#fdb462" stroke="transparent" points="310,-10 310,-30 330,-30 330,-10 310,-10"/>
<text text-anchor="start" x="333.67" y="-15.4" font-family="Times-12" font-size="14.00"> &#160;Providers</text>
<polygon fill="#fb8072" stroke="transparent" points="406,-10 406,-30 426,-30 426,-10 406,-10"/>
<text text-anchor="start" x="429.73" y="-15.4" font-family="Times-12" font-size="14.00"> &#160;Exports</text>
<g id="clust1" class="cluster">
<title>cluster_ServicesModule</title>
<polygon fill="none" stroke="black" stroke-dasharray="1,5" points="44,-70 44,-195 452,-195 452,-70 44,-70"/>
</g>
<g id="clust3" class="cluster">
<title>cluster_ServicesModule_imports</title>
<polygon fill="none" stroke="black" points="222,-78 222,-130 444,-130 444,-78 222,-78"/>
</g>
<g id="clust6" class="cluster">
<title>cluster_ServicesModule_providers</title>
<polygon fill="none" stroke="black" points="52,-78 52,-130 214,-130 214,-78 52,-78"/>
</g>
<!-- CoaModule -->
<g id="node1" class="node">
<title>CoaModule</title>
<polygon fill="#8dd3c7" stroke="black" points="436.1,-122 433.1,-126 412.1,-126 409.1,-122 353.9,-122 353.9,-86 436.1,-86 436.1,-122"/>
<text text-anchor="middle" x="395" y="-99.8" font-family="Times,serif" font-size="14.00">CoaModule</text>
</g>
<!-- ServicesModule -->
<g id="node3" class="node">
<title>ServicesModule</title>
<polygon fill="#8dd3c7" stroke="black" points="336.47,-187 333.47,-191 312.47,-191 309.47,-187 229.53,-187 229.53,-151 336.47,-151 336.47,-187"/>
<text text-anchor="middle" x="283" y="-164.8" font-family="Times,serif" font-size="14.00">ServicesModule</text>
</g>
<!-- CoaModule&#45;&gt;ServicesModule -->
<g id="edge1" class="edge">
<title>CoaModule&#45;&gt;ServicesModule</title>
<path fill="none" stroke="black" d="M395,-122.11C395,-141.34 395,-169 395,-169 395,-169 346.7,-169 346.7,-169"/>
<polygon fill="black" stroke="black" points="346.7,-165.5 336.7,-169 346.7,-172.5 346.7,-165.5"/>
</g>
<!-- SystemsModule -->
<g id="node2" class="node">
<title>SystemsModule</title>
<polygon fill="#8dd3c7" stroke="black" points="336.22,-122 333.22,-126 312.22,-126 309.22,-122 229.78,-122 229.78,-86 336.22,-86 336.22,-122"/>
<text text-anchor="middle" x="283" y="-99.8" font-family="Times,serif" font-size="14.00">SystemsModule</text>
</g>
<!-- SystemsModule&#45;&gt;ServicesModule -->
<g id="edge2" class="edge">
<title>SystemsModule&#45;&gt;ServicesModule</title>
<path fill="none" stroke="black" d="M283,-122.11C283,-122.11 283,-140.99 283,-140.99"/>
<polygon fill="black" stroke="black" points="279.5,-140.99 283,-150.99 286.5,-140.99 279.5,-140.99"/>
</g>
<!-- ServicesService -->
<g id="node4" class="node">
<title>ServicesService</title>
<ellipse fill="#fdb462" stroke="black" cx="133" cy="-104" rx="72.91" ry="18"/>
<text text-anchor="middle" x="133" y="-99.8" font-family="Times,serif" font-size="14.00">ServicesService</text>
</g>
<!-- ServicesService&#45;&gt;ServicesModule -->
<g id="edge3" class="edge">
<title>ServicesService&#45;&gt;ServicesModule</title>
<path fill="none" stroke="black" d="M133,-122.11C133,-141.34 133,-169 133,-169 133,-169 219.27,-169 219.27,-169"/>
<polygon fill="black" stroke="black" points="219.27,-172.5 229.27,-169 219.27,-165.5 219.27,-172.5"/>
</g>
</g>
</svg>
