<?xml version="1.0" encoding="UTF-8" standalone="no"?>
<!DOCTYPE svg PUBLIC "-//W3C//DTD SVG 1.1//EN"
 "http://www.w3.org/Graphics/SVG/1.1/DTD/svg11.dtd">
<!-- Generated by graphviz version 2.47.0 (20210316.0004)
 -->
<!-- Title: dependencies Pages: 1 -->
<svg width="1364pt" height="211pt"
 viewBox="0.00 0.00 1364.00 211.00" xmlns="http://www.w3.org/2000/svg" xmlns:xlink="http://www.w3.org/1999/xlink">
<g id="graph0" class="graph" transform="scale(1 1) rotate(0) translate(4 207)">
<title>dependencies</title>
<polygon fill="white" stroke="transparent" points="-4,4 -4,-207 1360,-207 1360,4 -4,4"/>
<text text-anchor="start" x="657.01" y="-42.4" font-family="Times-12" font-weight="bold" font-size="14.00">Legend</text>
<polygon fill="#ffffb3" stroke="transparent" points="444,-10 444,-30 464,-30 464,-10 444,-10"/>
<text text-anchor="start" x="467.63" y="-15.4" font-family="Times-12" font-size="14.00"> &#160;Declarations</text>
<polygon fill="#8dd3c7" stroke="transparent" points="557,-10 557,-30 577,-30 577,-10 557,-10"/>
<text text-anchor="start" x="580.73" y="-15.4" font-family="Times-12" font-size="14.00"> &#160;Module</text>
<polygon fill="#80b1d3" stroke="transparent" points="643,-10 643,-30 663,-30 663,-10 643,-10"/>
<text text-anchor="start" x="666.78" y="-15.4" font-family="Times-12" font-size="14.00"> &#160;Bootstrap</text>
<polygon fill="#fdb462" stroke="transparent" points="740,-10 740,-30 760,-30 760,-10 740,-10"/>
<text text-anchor="start" x="763.67" y="-15.4" font-family="Times-12" font-size="14.00"> &#160;Providers</text>
<polygon fill="#fb8072" stroke="transparent" points="836,-10 836,-30 856,-30 856,-10 836,-10"/>
<text text-anchor="start" x="859.73" y="-15.4" font-family="Times-12" font-size="14.00"> &#160;Exports</text>
<g id="clust1" class="cluster">
<title>cluster_AppModule</title>
<polygon fill="none" stroke="black" stroke-dasharray="1,5" points="8,-70 8,-195 1348,-195 1348,-70 8,-70"/>
</g>
<g id="clust6" class="cluster">
<title>cluster_AppModule_providers</title>
<polygon fill="none" stroke="black" points="1210,-78 1210,-130 1340,-130 1340,-78 1210,-78"/>
</g>
<g id="clust3" class="cluster">
<title>cluster_AppModule_imports</title>
<polygon fill="none" stroke="black" points="16,-78 16,-130 1202,-130 1202,-78 16,-78"/>
</g>
<!-- CoaModule -->
<g id="node1" class="node">
<title>CoaModule</title>
<polygon fill="#8dd3c7" stroke="black" points="1194.1,-122 1191.1,-126 1170.1,-126 1167.1,-122 1111.9,-122 1111.9,-86 1194.1,-86 1194.1,-122"/>
<text text-anchor="middle" x="1153" y="-99.8" font-family="Times,serif" font-size="14.00">CoaModule</text>
</g>
<!-- AppModule -->
<g id="node11" class="node">
<title>AppModule</title>
<polygon fill="#8dd3c7" stroke="black" points="821.66,-187 818.66,-191 797.66,-191 794.66,-187 738.34,-187 738.34,-151 821.66,-151 821.66,-187"/>
<text text-anchor="middle" x="780" y="-164.8" font-family="Times,serif" font-size="14.00">AppModule</text>
</g>
<!-- CoaModule&#45;&gt;AppModule -->
<g id="edge1" class="edge">
<title>CoaModule&#45;&gt;AppModule</title>
<path fill="none" stroke="black" d="M1153,-122.28C1153,-143.32 1153,-175 1153,-175 1153,-175 831.7,-175 831.7,-175"/>
<polygon fill="black" stroke="black" points="831.7,-171.5 821.7,-175 831.7,-178.5 831.7,-171.5"/>
</g>
<!-- NasModule -->
<g id="node2" class="node">
<title>NasModule</title>
<polygon fill="#8dd3c7" stroke="black" points="1093.82,-122 1090.82,-126 1069.82,-126 1066.82,-122 1012.18,-122 1012.18,-86 1093.82,-86 1093.82,-122"/>
<text text-anchor="middle" x="1053" y="-99.8" font-family="Times,serif" font-size="14.00">NasModule</text>
</g>
<!-- NasModule&#45;&gt;AppModule -->
<g id="edge2" class="edge">
<title>NasModule&#45;&gt;AppModule</title>
<path fill="none" stroke="black" d="M1053,-122.11C1053,-141.34 1053,-169 1053,-169 1053,-169 831.76,-169 831.76,-169"/>
<polygon fill="black" stroke="black" points="831.76,-165.5 821.76,-169 831.76,-172.5 831.76,-165.5"/>
</g>
<!-- NodesModule -->
<g id="node3" class="node">
<title>NodesModule</title>
<polygon fill="#8dd3c7" stroke="black" points="994.82,-122 991.82,-126 970.82,-126 967.82,-122 899.18,-122 899.18,-86 994.82,-86 994.82,-122"/>
<text text-anchor="middle" x="947" y="-99.8" font-family="Times,serif" font-size="14.00">NodesModule</text>
</g>
<!-- NodesModule&#45;&gt;AppModule -->
<g id="edge3" class="edge">
<title>NodesModule&#45;&gt;AppModule</title>
<path fill="none" stroke="black" d="M931.11,-122.24C931.11,-137.57 931.11,-157 931.11,-157 931.11,-157 831.69,-157 831.69,-157"/>
<polygon fill="black" stroke="black" points="831.69,-153.5 821.69,-157 831.69,-160.5 831.69,-153.5"/>
</g>
<!-- NodesModule&#45;&gt;AppModule -->
<g id="edge4" class="edge">
<title>NodesModule&#45;&gt;AppModule</title>
<path fill="none" stroke="black" d="M962.89,-122.02C962.89,-139.37 962.89,-163 962.89,-163 962.89,-163 831.96,-163 831.96,-163"/>
<polygon fill="black" stroke="black" points="831.96,-159.5 821.96,-163 831.96,-166.5 831.96,-159.5"/>
</g>
<!-- PlanModule -->
<g id="node4" class="node">
<title>PlanModule</title>
<polygon fill="#8dd3c7" stroke="black" points="881.44,-122 878.44,-126 857.44,-126 854.44,-122 796.56,-122 796.56,-86 881.44,-86 881.44,-122"/>
<text text-anchor="middle" x="839" y="-99.8" font-family="Times,serif" font-size="14.00">PlanModule</text>
</g>
<!-- PlanModule&#45;&gt;AppModule -->
<g id="edge5" class="edge">
<title>PlanModule&#45;&gt;AppModule</title>
<path fill="none" stroke="black" d="M809.3,-122.11C809.3,-122.11 809.3,-140.99 809.3,-140.99"/>
<polygon fill="black" stroke="black" points="805.8,-140.99 809.3,-150.99 812.8,-140.99 805.8,-140.99"/>
</g>
<!-- RadcheckModule -->
<g id="node5" class="node">
<title>RadcheckModule</title>
<polygon fill="#8dd3c7" stroke="black" points="778.25,-122 775.25,-126 754.25,-126 751.25,-122 663.75,-122 663.75,-86 778.25,-86 778.25,-122"/>
<text text-anchor="middle" x="721" y="-99.8" font-family="Times,serif" font-size="14.00">RadcheckModule</text>
</g>
<!-- RadcheckModule&#45;&gt;AppModule -->
<g id="edge6" class="edge">
<title>RadcheckModule&#45;&gt;AppModule</title>
<path fill="none" stroke="black" d="M758.27,-122.11C758.27,-122.11 758.27,-140.99 758.27,-140.99"/>
<polygon fill="black" stroke="black" points="754.77,-140.99 758.27,-150.99 761.77,-140.99 754.77,-140.99"/>
</g>
<!-- RadusergroupModule -->
<g id="node6" class="node">
<title>RadusergroupModule</title>
<polygon fill="#8dd3c7" stroke="black" points="646.08,-122 643.08,-126 622.08,-126 619.08,-122 507.92,-122 507.92,-86 646.08,-86 646.08,-122"/>
<text text-anchor="middle" x="577" y="-99.8" font-family="Times,serif" font-size="14.00">RadusergroupModule</text>
</g>
<!-- RadusergroupModule&#45;&gt;AppModule -->
<g id="edge7" class="edge">
<title>RadusergroupModule&#45;&gt;AppModule</title>
<path fill="none" stroke="black" d="M577,-122.24C577,-137.57 577,-157 577,-157 577,-157 727.94,-157 727.94,-157"/>
<polygon fill="black" stroke="black" points="727.94,-160.5 737.94,-157 727.94,-153.5 727.94,-160.5"/>
</g>
<!-- ServicesModule -->
<g id="node7" class="node">
<title>ServicesModule</title>
<polygon fill="#8dd3c7" stroke="black" points="489.47,-122 486.47,-126 465.47,-126 462.47,-122 382.53,-122 382.53,-86 489.47,-86 489.47,-122"/>
<text text-anchor="middle" x="436" y="-99.8" font-family="Times,serif" font-size="14.00">ServicesModule</text>
</g>
<!-- ServicesModule&#45;&gt;AppModule -->
<g id="edge8" class="edge">
<title>ServicesModule&#45;&gt;AppModule</title>
<path fill="none" stroke="black" d="M436,-122.02C436,-139.37 436,-163 436,-163 436,-163 728.16,-163 728.16,-163"/>
<polygon fill="black" stroke="black" points="728.16,-166.5 738.16,-163 728.16,-159.5 728.16,-166.5"/>
</g>
<!-- SystemsModule -->
<g id="node8" class="node">
<title>SystemsModule</title>
<polygon fill="#8dd3c7" stroke="black" points="364.22,-122 361.22,-126 340.22,-126 337.22,-122 257.78,-122 257.78,-86 364.22,-86 364.22,-122"/>
<text text-anchor="middle" x="311" y="-99.8" font-family="Times,serif" font-size="14.00">SystemsModule</text>
</g>
<!-- SystemsModule&#45;&gt;AppModule -->
<g id="edge9" class="edge">
<title>SystemsModule&#45;&gt;AppModule</title>
<path fill="none" stroke="black" d="M311,-122.11C311,-141.34 311,-169 311,-169 311,-169 727.97,-169 727.97,-169"/>
<polygon fill="black" stroke="black" points="727.97,-172.5 737.97,-169 727.97,-165.5 727.97,-172.5"/>
</g>
<!-- UserInfoModule -->
<g id="node9" class="node">
<title>UserInfoModule</title>
<polygon fill="#8dd3c7" stroke="black" points="239.8,-122 236.8,-126 215.8,-126 212.8,-122 130.2,-122 130.2,-86 239.8,-86 239.8,-122"/>
<text text-anchor="middle" x="185" y="-99.8" font-family="Times,serif" font-size="14.00">UserInfoModule</text>
</g>
<!-- UserInfoModule&#45;&gt;AppModule -->
<g id="edge10" class="edge">
<title>UserInfoModule&#45;&gt;AppModule</title>
<path fill="none" stroke="black" d="M185,-122.28C185,-143.32 185,-175 185,-175 185,-175 728.16,-175 728.16,-175"/>
<polygon fill="black" stroke="black" points="728.16,-178.5 738.16,-175 728.16,-171.5 728.16,-178.5"/>
</g>
<!-- ZoneModule -->
<g id="node10" class="node">
<title>ZoneModule</title>
<polygon fill="#8dd3c7" stroke="black" points="112.32,-122 109.32,-126 88.32,-126 85.32,-122 23.68,-122 23.68,-86 112.32,-86 112.32,-122"/>
<text text-anchor="middle" x="68" y="-99.8" font-family="Times,serif" font-size="14.00">ZoneModule</text>
</g>
<!-- ZoneModule&#45;&gt;AppModule -->
<g id="edge11" class="edge">
<title>ZoneModule&#45;&gt;AppModule</title>
<path fill="none" stroke="black" d="M68,-122.09C68,-145.13 68,-182 68,-182 68,-182 728.12,-182 728.12,-182"/>
<polygon fill="black" stroke="black" points="728.12,-185.5 738.12,-182 728.12,-178.5 728.12,-185.5"/>
</g>
<!-- AppService -->
<g id="node12" class="node">
<title>AppService</title>
<ellipse fill="#fdb462" stroke="black" cx="1275" cy="-104" rx="56.74" ry="18"/>
<text text-anchor="middle" x="1275" y="-99.8" font-family="Times,serif" font-size="14.00">AppService</text>
</g>
<!-- AppService&#45;&gt;AppModule -->
<g id="edge12" class="edge">
<title>AppService&#45;&gt;AppModule</title>
<path fill="none" stroke="black" d="M1275,-122.09C1275,-145.13 1275,-182 1275,-182 1275,-182 831.78,-182 831.78,-182"/>
<polygon fill="black" stroke="black" points="831.78,-178.5 821.78,-182 831.78,-185.5 831.78,-178.5"/>
</g>
</g>
</svg>
