<?xml version="1.0" encoding="UTF-8" standalone="no"?>
<!DOCTYPE svg PUBLIC "-//W3C//DTD SVG 1.1//EN"
 "http://www.w3.org/Graphics/SVG/1.1/DTD/svg11.dtd">
<!-- Generated by graphviz version 2.47.0 (20210316.0004)
 -->
<!-- Title: dependencies Pages: 1 -->
<svg width="737pt" height="211pt"
 viewBox="0.00 0.00 737.00 211.00" xmlns="http://www.w3.org/2000/svg" xmlns:xlink="http://www.w3.org/1999/xlink">
<g id="graph0" class="graph" transform="scale(1 1) rotate(0) translate(4 207)">
<title>dependencies</title>
<polygon fill="white" stroke="transparent" points="-4,4 -4,-207 733,-207 733,4 -4,4"/>
<text text-anchor="start" x="343.51" y="-42.4" font-family="Times-12" font-weight="bold" font-size="14.00">Legend</text>
<polygon fill="#ffffb3" stroke="transparent" points="130.5,-10 130.5,-30 150.5,-30 150.5,-10 130.5,-10"/>
<text text-anchor="start" x="154.13" y="-15.4" font-family="Times-12" font-size="14.00"> &#160;Declarations</text>
<polygon fill="#8dd3c7" stroke="transparent" points="243.5,-10 243.5,-30 263.5,-30 263.5,-10 243.5,-10"/>
<text text-anchor="start" x="267.23" y="-15.4" font-family="Times-12" font-size="14.00"> &#160;Module</text>
<polygon fill="#80b1d3" stroke="transparent" points="329.5,-10 329.5,-30 349.5,-30 349.5,-10 329.5,-10"/>
<text text-anchor="start" x="353.28" y="-15.4" font-family="Times-12" font-size="14.00"> &#160;Bootstrap</text>
<polygon fill="#fdb462" stroke="transparent" points="426.5,-10 426.5,-30 446.5,-30 446.5,-10 426.5,-10"/>
<text text-anchor="start" x="450.17" y="-15.4" font-family="Times-12" font-size="14.00"> &#160;Providers</text>
<polygon fill="#fb8072" stroke="transparent" points="522.5,-10 522.5,-30 542.5,-30 542.5,-10 522.5,-10"/>
<text text-anchor="start" x="546.23" y="-15.4" font-family="Times-12" font-size="14.00"> &#160;Exports</text>
<g id="clust1" class="cluster">
<title>cluster_AppModule</title>
<polygon fill="none" stroke="black" stroke-dasharray="1,5" points="8,-70 8,-195 721,-195 721,-70 8,-70"/>
</g>
<g id="clust6" class="cluster">
<title>cluster_AppModule_providers</title>
<polygon fill="none" stroke="black" points="267,-78 267,-130 713,-130 713,-78 267,-78"/>
</g>
<g id="clust3" class="cluster">
<title>cluster_AppModule_imports</title>
<polygon fill="none" stroke="black" points="16,-78 16,-130 259,-130 259,-78 16,-78"/>
</g>
<!-- DatabaseModule -->
<g id="node1" class="node">
<title>DatabaseModule</title>
<polygon fill="#8dd3c7" stroke="black" points="251.35,-122 248.35,-126 227.35,-126 224.35,-122 140.65,-122 140.65,-86 251.35,-86 251.35,-122"/>
<text text-anchor="middle" x="196" y="-99.8" font-family="Times,serif" font-size="14.00">DatabaseModule</text>
</g>
<!-- AppModule -->
<g id="node3" class="node">
<title>AppModule</title>
<polygon fill="#8dd3c7" stroke="black" points="373.66,-187 370.66,-191 349.66,-191 346.66,-187 290.34,-187 290.34,-151 373.66,-151 373.66,-187"/>
<text text-anchor="middle" x="332" y="-164.8" font-family="Times,serif" font-size="14.00">AppModule</text>
</g>
<!-- DatabaseModule&#45;&gt;AppModule -->
<g id="edge1" class="edge">
<title>DatabaseModule&#45;&gt;AppModule</title>
<path fill="none" stroke="black" d="M196,-122.02C196,-139.37 196,-163 196,-163 196,-163 280.09,-163 280.09,-163"/>
<polygon fill="black" stroke="black" points="280.09,-166.5 290.09,-163 280.09,-159.5 280.09,-166.5"/>
</g>
<!-- PrismaModule -->
<g id="node2" class="node">
<title>PrismaModule</title>
<polygon fill="#8dd3c7" stroke="black" points="122.43,-122 119.43,-126 98.43,-126 95.43,-122 23.57,-122 23.57,-86 122.43,-86 122.43,-122"/>
<text text-anchor="middle" x="73" y="-99.8" font-family="Times,serif" font-size="14.00">PrismaModule</text>
</g>
<!-- PrismaModule&#45;&gt;AppModule -->
<g id="edge2" class="edge">
<title>PrismaModule&#45;&gt;AppModule</title>
<path fill="none" stroke="black" d="M73,-122.28C73,-143.32 73,-175 73,-175 73,-175 280.1,-175 280.1,-175"/>
<polygon fill="black" stroke="black" points="280.1,-178.5 290.1,-175 280.1,-171.5 280.1,-178.5"/>
</g>
<!-- AppGetService -->
<g id="node4" class="node">
<title>AppGetService</title>
<ellipse fill="#fdb462" stroke="black" cx="634" cy="-104" rx="70.62" ry="18"/>
<text text-anchor="middle" x="634" y="-99.8" font-family="Times,serif" font-size="14.00">AppGetService</text>
</g>
<!-- AppGetService&#45;&gt;AppModule -->
<g id="edge3" class="edge">
<title>AppGetService&#45;&gt;AppModule</title>
<path fill="none" stroke="black" d="M634,-122.28C634,-143.32 634,-175 634,-175 634,-175 383.67,-175 383.67,-175"/>
<polygon fill="black" stroke="black" points="383.67,-171.5 373.67,-175 383.67,-178.5 383.67,-171.5"/>
</g>
<!-- AppPutService -->
<g id="node5" class="node">
<title>AppPutService</title>
<ellipse fill="#fdb462" stroke="black" cx="476" cy="-104" rx="69.5" ry="18"/>
<text text-anchor="middle" x="476" y="-99.8" font-family="Times,serif" font-size="14.00">AppPutService</text>
</g>
<!-- AppPutService&#45;&gt;AppModule -->
<g id="edge4" class="edge">
<title>AppPutService&#45;&gt;AppModule</title>
<path fill="none" stroke="black" d="M476,-122.02C476,-139.37 476,-163 476,-163 476,-163 384.04,-163 384.04,-163"/>
<polygon fill="black" stroke="black" points="384.04,-159.5 374.04,-163 384.04,-166.5 384.04,-159.5"/>
</g>
<!-- AppService -->
<g id="node6" class="node">
<title>AppService</title>
<ellipse fill="#fdb462" stroke="black" cx="332" cy="-104" rx="56.74" ry="18"/>
<text text-anchor="middle" x="332" y="-99.8" font-family="Times,serif" font-size="14.00">AppService</text>
</g>
<!-- AppService&#45;&gt;AppModule -->
<g id="edge5" class="edge">
<title>AppService&#45;&gt;AppModule</title>
<path fill="none" stroke="black" d="M332,-122.11C332,-122.11 332,-140.99 332,-140.99"/>
<polygon fill="black" stroke="black" points="328.5,-140.99 332,-150.99 335.5,-140.99 328.5,-140.99"/>
</g>
</g>
</svg>
